nColumns=19
nRows=56
DataType=double
version=3
OpenSimVersion=4.1
endheader
time	ground_force_calcn_r_vx	ground_force_calcn_r_vy	ground_force_calcn_r_vz	ground_force_calcn_r_px	ground_force_calcn_r_py	ground_force_calcn_r_pz	ground_force_calcn_r_mx	ground_force_calcn_r_my	ground_force_calcn_r_mz	ground_force_calcn_l_vx	ground_force_calcn_l_vy	ground_force_calcn_l_vz	ground_force_calcn_l_px	ground_force_calcn_l_py	ground_force_calcn_l_pz	ground_force_calcn_l_mx	ground_force_calcn_l_my	ground_force_calcn_l_mz
0.46	-5.0829	19.2216	-6.66026	1.11345	0	-0.279195	-0.38415	1.4527	-0.503362	0	0	0	0	0	0	0	0	0
0.47	-16.4964	77.8361	-14.5223	1.09692	0	-0.274377	-0.70568	3.32966	-0.621231	0	0	0	0	0	0	0	0	0
0.48	-35.6709	226.725	-24.114	1.08439	0	-0.27532	-0.725464	4.61107	-0.490424	0	0	0	0	0	0	0	0	0
0.49	-52.7238	479.994	-28.3964	1.06859	0	-0.279701	-0.509954	4.64259	-0.274655	0	0	0	0	0	0	0	0	0
0.5	-66.5641	771.335	-19.6232	1.05059	0	-0.284015	-0.278461	3.22676	-0.0820905	0	0	0	0	0	0	0	0	0
0.51	-98.5653	997.37	-0.372051	1.03354	0	-0.287007	-0.0813372	0.823041	-0.00030702	0	0	0	0	0	0	0	0	0
0.52	-138.643	1133.18	16.0296	1.01627	0	-0.289288	0.200902	-1.64205	-0.0232278	0	0	0	0	0	0	0	0	0
0.53	-159.365	1236.84	21.1391	0.99551	0	-0.290932	0.422971	-3.28269	-0.0561051	0	0	0	0	0	0	0	0	0
0.54	-157.309	1346.06	18.4901	0.97163	0	-0.291112	0.421851	-3.60968	-0.0495845	0	0	0	0	0	0	0	0	0
0.55	-138.719	1446.25	13.3811	0.946683	0	-0.290585	0.250375	-2.61035	-0.0241517	0	0	0	0	0	0	0	0	0
0.56	-109.805	1514.18	7.57026	0.92167	0	-0.290307	0.050131	-0.69129	-0.00345616	0	0	0	0	0	0	0	0	0
0.57	-76.6905	1545.12	2.67285	0.89719	0	-0.289734	-0.0749309	1.50967	0.00261152	0	0	0	0	0	0	0	0	0
0.58	-42.6643	1541.96	-0.655141	0.873246	0	-0.288539	-0.0928581	3.35606	-0.0014259	0	0	0	0	0	0	0	0	0
0.59	-7.87145	1505.91	-3.31316	0.84932	0	-0.287311	-0.0229529	4.39117	-0.00966106	0	0	0	0	0	0	0	0	0
0.6	28.7676	1440.76	-4.02302	0.825037	0	-0.286258	0.088403	4.42747	-0.0123627	0	0	0	0	0	0	0	0	0
0.61	67.3386	1351.56	-0.517447	0.799896	0	-0.285294	0.17773	3.56724	-0.00136572	0	0	0	0	0	0	0	0	0
0.62	105.532	1238.94	6.15321	0.773278	0	-0.284892	0.183774	2.15751	0.0107153	0	0	0	0	0	0	0	0	0
0.63	138.239	1103.73	13.0953	0.745614	0	-0.285285	0.0836148	0.667599	0.00792076	0	0	0	0	0	0	0	0	0
0.64	159.714	950.805	18.534	0.718524	0	-0.285761	-0.0803869	-0.478557	-0.00932851	0	0	0	0	0	0	0	0	0
0.65	166.276	786.091	21.066	0.693576	0	-0.285781	-0.220314	-1.04156	-0.0279122	0	0	0	0	0	0	0	0	0
0.66	157.956	616.603	19.9256	0.670606	0	-0.285571	-0.260725	-1.01778	-0.0328896	0	0	0	0	0	0	0	0	0
0.67	137.355	454.586	16.588	0.649304	0	-0.284545	-0.179355	-0.593591	-0.0216603	0	0	0	0	0	0	0	0	0
0.68	109.112	312.774	12.8498	0.630864	0	-0.281238	-0.0117982	-0.0338201	-0.00138944	0	0	0	0	0	0	0	0	0
0.69	79.057	197.756	8.81479	0.616212	0	-0.275468	0.173092	0.43298	0.0192996	0	0	0	0	0	0	0	0	0
0.7	51.1043	110.722	4.72946	0.605499	0	-0.267155	0.312569	0.677209	0.0289268	0	0	0	0	0	0	0	0	0
0.71	27.2242	52.2209	1.90995	0.600966	0	-0.25129	0.363553	0.697362	0.0255056	0	0	0	0	0	0	0	0	0
0.72	10.0366	20.0109	0.741346	0.601949	0	-0.21566	0.308642	0.61537	0.0227977	0	0	0	0	0	0	0	0	0
0.73	0	0	0	0	0	0	0	0	0	0	0	0	0	0	0	0	0	0
0.74	0	0	0	0	0	0	0	0	0	0	0	0	0	0	0	0	0	0
0.75	0	0	0	0	0	0	0	0	0	0	0	0	0	0	0	0	0	0
0.76	0	0	0	0	0	0	0	0	0	0	0	0	0	0	0	0	0	0
0.77	0	0	0	0	0	0	0	0	0	0	0	0	0	0	0	0	0	0
0.78	0	0	0	0	0	0	0	0	0	0	0	0	0	0	0	0	0	0
0.79	0	0	0	0	0	0	0	0	0	0	0	0	0	0	0	0	0	0
0.8	0	0	0	0	0	0	0	0	0	0	0	0	0	0	0	0	0	0
0.81	0	0	0	0	0	0	0	0	0	-7.59535	20.0689	1.57717	1.12181	0	-0.352233	0.0919419	-0.242935	-0.0190917
0.82	0	0	0	0	0	0	0	0	0	-28.103	78.3631	5.37292	1.1166	0	-0.356148	0.261016	-0.727824	-0.0499028
0.83	0	0	0	0	0	0	0	0	0	-64.4699	224.13	13.277	1.11462	0	-0.349967	0.250892	-0.872227	-0.0516688
0.84	0	0	0	0	0	0	0	0	0	-92.332	468.113	21.0906	1.10271	0	-0.341113	0.0567045	-0.287486	-0.0129525
0.85	0	0	0	0	0	0	0	0	0	-96.0524	748.174	19.6232	1.08331	0	-0.334522	-0.149803	1.16685	0.0306043
0.86	0	0	0	0	0	0	0	0	0	-111.226	966.859	6.62542	1.06332	0	-0.332319	-0.354516	3.08173	0.0211176
0.87	0	0	0	0	0	0	0	0	0	-150.436	1098.79	-6.2472	1.04509	0	-0.331973	-0.641265	4.68382	-0.0266301
0.88	0	0	0	0	0	0	0	0	0	-182.593	1202.4	-7.47294	1.0253	0	-0.331348	-0.806851	5.3132	-0.0330217
0.89	0	0	0	0	0	0	0	0	0	-185.969	1317.02	1.51622	1.00112	0	-0.331198	-0.669871	4.74399	0.00546151
0.9	0	0	0	0	0	0	0	0	0	-166.964	1428.17	12.9477	0.974476	0	-0.331814	-0.372555	3.18674	0.0288908
0.91	0	0	0	0	0	0	0	0	0	-137.558	1512.12	22.007	0.94798	0	-0.332452	-0.109044	1.19868	0.0174453
0.92	0	0	0	0	0	0	0	0	0	-105.154	1560.13	27.1521	0.922753	0	-0.333042	0.0383572	-0.569091	-0.00990434
0.93	0	0	0	0	0	0	0	0	0	-70.9802	1571.84	28.6822	0.898612	0	-0.33372	0.0733574	-1.62448	-0.0296428
0.94	0	0	0	0	0	0	0	0	0	-34.7081	1550.26	27.9926	0.874762	0	-0.334327	0.0391039	-1.7466	-0.0315379
0.95	0	0	0	0	0	0	0	0	0	4.08362	1498.93	25.4146	0.850606	0	-0.334704	-0.00265638	-0.97505	-0.0165321
0.96	0	0	0	0	0	0	0	0	0	44.9471	1420.71	19.7389	0.825903	0	-0.334772	0.0143745	0.454357	0.00631268
0.97	0	0	0	0	0	0	0	0	0	86.2462	1317.23	10.6921	0.800365	0	-0.334247	0.142937	2.18307	0.0177202
0.98	0	0	0	0	0	0	0	0	0	123.196	1188.46	-0.0446337	0.774209	0	-0.332875	0.395014	3.81064	-0.000143113
0.99	0	0	0	0	0	0	0	0	0	150.931	1035.16	-10.3123	0.74771	0	-0.331064	0.727047	4.98642	-0.0496748
1	0	0	0	0	0	0	0	0	0	164.755	863.613	-18.0727	0.721227	0	-0.329365	1.04787	5.4927	-0.114945
1.01	0	0	0	0	0	0	0	0	0	162.736	685.548	-21.7863	0.695953	0	-0.327542	1.25536	5.28839	-0.168062
